{
  "accessors": [
    {
      "bufferView": 2,
      "componentType": 5126,
      "count": 8832,
      "max": [
        0.8220282196998596,
        0.8220282793045044,
        1.683484673500061
      ],
      "min": [
        -0.9487391114234924,
        -0.8220282793045044,
        0.4465908706188202
      ],
      "type": "VEC3"
    },
    {
      "bufferView": 2,
      "byteOffset": 105984,
      "componentType": 5126,
      "count": 8832,
      "max": [
        0.9999988079071045,
        0.9999982118606567,
        0.99977707862854
      ],
      "min": [
        -1.0,
        -0.9999998807907104,
        -0.9480433464050293
      ],
      "type": "VEC3"
    },
    {
      "bufferView": 1,
      "componentType": 5126,
      "count": 8832,
      "max": [
        0.0,
        0.0
      ],
      "min": [
        0.0,
        0.0
      ],
      "type": "VEC2"
    },
    {
      "bufferView": 0,
      "componentType": 5125,
      "count": 52224,
      "type": "SCALAR"
    },
    {
      "bufferView": 2,
      "byteOffset": 211968,
      "componentType": 5126,
      "count": 559,
      "max": [
        1.000000238418579,
        1.0,
        1.0
      ],
      "min": [
        -0.9999998211860657,
        -1.0000003576278687,
        -1.0
      ],
      "type": "VEC3"
    },
    {
      "bufferView": 2,
      "byteOffset": 218676,
      "componentType": 5126,
      "count": 559,
      "max": [
        1.0,
        1.0,
        1.0
      ],
      "min": [
        -1.0,
        -1.0,
        -1.0
      ],
      "type": "VEC3"
    },
    {
      "bufferView": 1,
      "byteOffset": 70656,
      "componentType": 5126,
      "count": 559,
      "max": [
        1.000000238418579,
        1.0
      ],
      "min": [
        0.0,
        0.0
      ],
      "type": "VEC2"
    },
    {
      "bufferView": 0,
      "byteOffset": 208896,
      "componentType": 5125,
      "count": 2880,
      "type": "SCALAR"
    },
    {
      "bufferView": 2,
      "byteOffset": 225384,
      "componentType": 5126,
      "count": 6784,
      "max": [
        0.9935951828956604,
        0.9935952425003052,
        0.45478585362434387
      ],
      "min": [
        -0.9935951828956604,
        -0.9935951828956604,
        -0.057631757110357285
      ],
      "type": "VEC3"
    },
    {
      "bufferView": 2,
      "byteOffset": 306792,
      "componentType": 5126,
      "count": 6784,
      "max": [
        1.0,
        1.0,
        0.9443868398666382
      ],
      "min": [
        -1.0,
        -1.0,
        -0.9999744892120361
      ],
      "type": "VEC3"
    },
    {
      "bufferView": 1,
      "byteOffset": 75128,
      "componentType": 5126,
      "count": 6784,
      "max": [
        0.0,
        0.0
      ],
      "min": [
        0.0,
        0.0
      ],
      "type": "VEC2"
    },
    {
      "bufferView": 0,
      "byteOffset": 220416,
      "componentType": 5125,
      "count": 39936,
      "type": "SCALAR"
    }
  ],
  "asset": {
    "extras": {
      "author": "Maru Studio (https://sketchfab.com/marustudio)",
      "license": "CC-BY-4.0 (http://creativecommons.org/licenses/by/4.0/)",
      "source": "https://sketchfab.com/3d-models/free-santa-claus-hat-for-ar-filter-50b4c5fa3a8c486697e8dfbcd5ee0ade",
      "title": "Free Santa Claus Hat for AR Filter"
    },
    "generator": "Sketchfab-12.68.0",
    "version": "2.0"
  },
  "bufferViews": [
    {
      "buffer": 0,
      "byteLength": 380160,
      "name": "floatBufferViews",
      "target": 34963
    },
    {
      "buffer": 0,
      "byteLength": 129400,
      "byteOffset": 380160,
      "byteStride": 8,
      "name": "floatBufferViews",
      "target": 34962
    },
    {
      "buffer": 0,
      "byteLength": 388200,
      "byteOffset": 509560,
      "byteStride": 12,
      "name": "floatBufferViews",
      "target": 34962
    }
  ],
  "buffers": [
    {
      "byteLength": 897760,
      "uri": "scene.bin"
    }
  ],
  "materials": [
    {
      "doubleSided": true,
      "name": "Material.003",
      "pbrMetallicRoughness": {
        "baseColorFactor": [
          0.8,
          0.00233584,
          0.0,
          1.0
        ],
        "metallicFactor": 0.0,
        "roughnessFactor": 0.9615953999394868
      }
    },
    {
      "doubleSided": true,
      "name": "White",
      "pbrMetallicRoughness": {
        "baseColorFactor": [
          0.8,
          0.8,
          0.8,
          1.0
        ],
        "metallicFactor": 0.0,
        "roughnessFactor": 0.8211145618000169
      }
    }
  ],
  "meshes": [
    {
      "name": "Circle_Material.003_0",
      "primitives": [
        {
          "attributes": {
            "NORMAL": 1,
            "POSITION": 0,
            "TEXCOORD_0": 2
          },
          "indices": 3,
          "material": 0,
          "mode": 4
        }
      ]
    },
    {
      "name": "Sphere_White_0",
      "primitives": [
        {
          "attributes": {
            "NORMAL": 5,
            "POSITION": 4,
            "TEXCOORD_0": 6
          },
          "indices": 7,
          "material": 1,
          "mode": 4
        }
      ]
    },
    {
      "name": "Circle.001_White_0",
      "primitives": [
        {
          "attributes": {
            "NORMAL": 9,
            "POSITION": 8,
            "TEXCOORD_0": 10
          },
          "indices": 11,
          "material": 1,
          "mode": 4
        }
      ]
    }
  ],
  "nodes": [
    {
      "children": [
        1
      ],
      "matrix": [
        1.0,
        0.0,
        0.0,
        0.0,
        0.0,
        2.220446049250313e-16,
        -1.0,
        0.0,
        0.0,
        1.0,
        2.220446049250313e-16,
        0.0,
        0.0,
        0.0,
        0.0,
        1.0
      ],
      "name": "Sketchfab_model"
    },
    {
      "children": [
        2
      ],
      "matrix": [
        1.0,
        0.0,
        0.0,
        0.0,
        0.0,
        0.0,
        1.0,
        0.0,
        0.0,
        -1.0,
        0.0,
        0.0,
        0.0,
        0.0,
        0.0,
        1.0
      ],
      "name": "HAT.fbx"
    },
    {
      "children": [
        3,
        5,
        7
      ],
      "name": "RootNode"
    },
    {
      "children": [
        4
      ],
      "matrix": [
        128.55752126075416,
        0.0,
        153.20888919149155,
        0.0,
        153.2088891914914,
        -8.742278012618954e-06,
        -128.55752126075407,
        0.0,
        6.6969734979771545e-06,
        199.99999999999983,
        -5.619427945191546e-06,
        0.0,
        0.0,
        0.0,
        0.0,
        1.0
      ],
      "name": "Circle"
    },
    {
      "mesh": 0,
      "name": "Circle_Material.003_0"
    },
    {
      "children": [
        6
      ],
      "matrix": [
        38.223533630371094,
        0.0,
        0.0,
        0.0,
        -0.0,
        -6.227404067816575e-06,
        -38.22353363037059,
        0.0,
        0.0,
        38.22353363037059,
        -6.227404067816575e-06,
        0.0,
        -54.446327209472656,
        141.0888671875,
        -189.80580139160156,
        1.0
      ],
      "name": "Sphere"
    },
    {
      "mesh": 1,
      "name": "Sphere_White_0"
    },
    {
      "children": [
        8
      ],
      "matrix": [
        128.55752126075416,
        0.0,
        153.20888919149155,
        0.0,
        153.2088891914914,
        -8.742278012618954e-06,
        -128.55752126075407,
        0.0,
        6.6969734979771545e-06,
        199.99999999999983,
        -5.619427945191546e-06,
        0.0,
        0.0,
        0.0,
        0.0,
        1.0
      ],
      "name": "Circle.001"
    },
    {
      "mesh": 2,
      "name": "Circle.001_White_0"
    }
  ],
  "scene": 0,
  "scenes": [
    {
      "name": "Sketchfab_Scene",
      "nodes": [
        0
      ]
    }
  ]
}
